<svg width="133" height="19" viewBox="0 0 133 19" fill="none" xmlns="http://www.w3.org/2000/svg">
<path d="M18.7651 0.233398L13.9287 18.7151H11.1236L9.28582 12.6012L7.49636 18.7151H4.69127L0 0.233398H3.192L6.19054 12.3212L7.93163 6.39395H10.7367L12.5745 12.2278L15.4764 0.233398H18.7651Z" fill="#7A7A7A"/>
<path d="M33.3709 18.7152H30.0822L28.7764 14.5148H23.4564L22.0054 18.6685H18.7167L20.1676 14.5148H19.3454L17.5076 11.4345H21.1833L24.7622 0.373535H27.5673L33.3709 18.7152ZM27.8091 11.3879L26.068 6.2074L24.3269 11.3879H27.8091Z" fill="#7A7A7A"/>
<path d="M50.5883 18.7149H46.9127L42.6567 11.6676L38.4974 18.7149H34.8218L40.8673 8.58728C40.2869 7.56052 39.3196 5.97371 37.9654 3.78018C36.6113 1.58665 35.9342 0.326536 35.8374 0.233194H39.5131L42.8018 5.60035C43.092 5.22698 43.5756 4.3869 44.3494 3.08012C45.1233 1.77333 45.7036 0.839916 46.0905 0.186523H49.7662L44.6396 8.58728L50.5883 18.7149Z" fill="#7A7A7A"/>
<path d="M67.032 18.7159H63.7433L62.3891 14.5622H57.1174L55.6665 18.7159H52.3778L53.8287 14.5622H52.9582L51.1204 11.4819H54.796L58.3749 0.420898H61.18L67.032 18.7159ZM61.4702 11.3886L59.7291 6.20809L57.988 11.3886H61.4702Z" fill="#7A7A7A"/>
<path d="M85.652 12.5545C85.652 14.2346 84.9749 15.6347 83.6207 16.8015C82.2665 18.015 80.6222 18.6684 78.8327 18.6684V15.5881C79.8967 15.5881 80.7673 15.308 81.5411 14.6547C82.3149 14.0013 82.6051 13.3479 82.6051 12.5078C82.6051 12.0411 82.4116 11.6677 82.1215 11.201C81.7345 10.7343 81.3476 10.3609 80.864 9.89423C80.3804 9.42752 79.8967 8.96081 79.4131 8.4941C78.9294 8.02739 78.5425 7.46734 78.1556 6.81395C77.7687 6.16056 77.672 5.50716 77.672 4.76043C77.672 3.45365 78.2524 2.33354 79.3164 1.40013C80.3804 0.466709 81.7345 0 83.1854 0V3.08028C82.5084 3.08028 81.928 3.26696 81.5411 3.54699C81.0575 3.92035 80.864 4.29372 80.864 4.76043C80.864 5.1338 81.0574 5.60051 81.3476 5.97387C81.7345 6.34724 82.1215 6.81395 82.6051 7.18732C83.0887 7.56068 83.5724 8.02739 84.056 8.4941C84.5396 8.96081 84.9265 9.52086 85.3134 10.1743C85.5069 11.0143 85.652 11.7611 85.652 12.5545Z" fill="#7A7A7A"/>
<path d="M100.113 18.6214H96.9207V7.18703H92.3262V18.6214H89.1342V7.18703H87.8767L86.0389 4.10675H89.1342V0.0463867H92.3262V4.15342H96.9207V0.0463867H100.113V18.6214Z" fill="#7A7A7A"/>
<path d="M121.344 9.42756C121.344 11.9478 120.377 14.1413 118.539 15.9148C116.701 17.6883 114.38 18.6217 111.817 18.6217C109.253 18.6217 106.932 17.6883 105.094 15.9148C103.256 14.048 102.289 11.9011 102.289 9.42756C102.289 6.95401 103.256 4.80715 105.094 2.94031C107.029 1.07347 109.253 0.233398 111.817 0.233398C114.38 0.233398 116.605 1.16682 118.539 2.94031C120.377 4.76047 121.344 6.90734 121.344 9.42756ZM116.363 13.768C117.62 12.5545 118.297 11.061 118.297 9.42756C118.297 7.74741 117.62 6.25394 116.363 5.08717C115.105 3.9204 113.558 3.22034 111.865 3.22034C110.172 3.22034 108.576 3.87373 107.367 5.08717C106.11 6.30061 105.433 7.79408 105.433 9.42756C105.433 11.061 106.11 12.6012 107.367 13.768C108.625 14.9814 110.172 15.6348 111.865 15.6348C113.558 15.6348 115.105 14.9814 116.363 13.768Z" fill="#7A7A7A"/>
<path d="M133 7.37404C133 9.14753 132.42 10.7343 131.162 12.0878C129.905 13.4879 128.357 14.2347 126.664 14.5147V18.7151H123.472V0.233398H125.504C127.535 0.233398 129.276 0.980132 130.775 2.38026C132.226 3.78038 133 5.41386 133 7.37404ZM129.905 7.37404C129.905 6.34728 129.615 5.50721 128.937 4.76047C128.357 4.01374 127.487 3.54703 126.519 3.267V11.3411C127.487 11.1544 128.26 10.5943 128.841 9.8476C129.615 9.24088 129.905 8.30746 129.905 7.37404Z" fill="#7A7A7A"/>
</svg>
