<svg width="12" height="6" viewBox="0 0 12 6" fill="none" xmlns="http://www.w3.org/2000/svg">
<path d="M3.42773 4.14062V5.30859C3.42773 5.57943 3.30078 5.76562 3.04688 5.86719C2.79297 5.96875 2.57292 5.92643 2.38672 5.74023L0.203125 3.55664C0.0846354 3.43815 0.0253906 3.29427 0.0253906 3.125C0.0253906 2.95573 0.0846354 2.81185 0.203125 2.69336L2.38672 0.509766C2.57292 0.323568 2.79297 0.28125 3.04688 0.382812C3.30078 0.484375 3.42773 0.670573 3.42773 0.941406V2.10938H11.0957C11.2988 2.10938 11.4004 2.21094 11.4004 2.41406V3.83594C11.4004 4.03906 11.2988 4.14062 11.0957 4.14062H3.42773Z" fill="#262626"/>
</svg>
