<svg width="38" height="38" viewBox="0 0 38 38" fill="none" xmlns="http://www.w3.org/2000/svg">
<path d="M24.8776 3.31104H13.109C7.69383 3.31104 3.31076 7.69411 3.31076 13.1093V24.8779C3.31076 30.2931 7.69383 34.6761 13.109 34.6761H24.8776C30.2928 34.6761 34.6758 30.2931 34.6758 24.8779V13.1093C34.6758 7.70751 30.2928 3.31104 24.8776 3.31104ZM31.7404 24.8779C31.7404 28.6578 28.6575 31.7407 24.8776 31.7407H13.109C9.3291 31.7407 6.24621 28.6578 6.24621 24.8779V13.1093C6.24621 9.32938 9.3291 6.24648 13.109 6.24648H24.8776C28.6575 6.24648 31.7404 9.32938 31.7404 13.1093V24.8779Z" fill="#7A7A7A"/>
<path d="M18.9933 11.1519C14.6639 11.1519 11.152 14.6637 11.152 18.9931C11.152 23.3226 14.6639 26.8344 18.9933 26.8344C23.3228 26.8344 26.8346 23.3226 26.8346 18.9931C26.8346 14.6637 23.3228 11.1519 18.9933 11.1519ZM18.9933 23.899C16.2857 23.899 14.0875 21.7007 14.0875 18.9931C14.0875 16.2855 16.2857 14.0873 18.9933 14.0873C21.7009 14.0873 23.8991 16.2855 23.8991 18.9931C23.8991 21.7007 21.7009 23.899 18.9933 23.899Z" fill="#7A7A7A"/>
<path d="M27.4243 11.6076C28.0018 11.6076 28.4698 11.1395 28.4698 10.5621C28.4698 9.98469 28.0018 9.5166 27.4243 9.5166C26.8469 9.5166 26.3788 9.98469 26.3788 10.5621C26.3788 11.1395 26.8469 11.6076 27.4243 11.6076Z" fill="#7A7A7A"/>
</svg>
