<svg width="22" height="34" viewBox="0 0 22 34" fill="none" xmlns="http://www.w3.org/2000/svg">
<path d="M9.31681 34V26.992H5.81281C5.04481 26.992 4.59681 27.152 4.46881 27.472C4.34081 27.792 4.27681 28.192 4.27681 28.672V34H0.532813V28.768C0.532813 28.384 0.548813 27.952 0.580813 27.472C0.612813 26.96 0.740813 26.464 0.964813 25.984C1.22081 25.472 1.60481 24.992 2.11681 24.544C2.62881 24.096 3.34881 23.744 4.27681 23.488C2.80481 22.048 1.81281 20.416 1.30081 18.592C0.788813 16.736 0.532813 14.864 0.532813 12.976V0.591998H4.27681V12.976C4.27681 13.712 4.34081 14.624 4.46881 15.712C4.59681 16.8 5.02881 18.08 5.76481 19.552C6.27681 20.576 6.88481 21.408 7.58881 22.048C8.29281 22.688 8.86881 23.184 9.31681 23.536V0.591998H13.0128V23.536C13.4608 23.184 14.0368 22.688 14.7408 22.048C15.4448 21.408 16.0528 20.576 16.5648 19.552C17.3008 18.08 17.7328 16.8 17.8608 15.712C17.9888 14.624 18.0528 13.712 18.0528 12.976V0.591998H21.7968V12.976C21.7968 14.864 21.5408 16.736 21.0288 18.592C20.5168 20.416 19.5248 22.048 18.0528 23.488C18.9808 23.744 19.7008 24.096 20.2128 24.544C20.7248 24.992 21.0928 25.472 21.3168 25.984C21.5728 26.464 21.7168 26.96 21.7488 27.472C21.7808 27.952 21.7968 28.384 21.7968 28.768V34H18.0528V28.672C18.0528 28.192 17.9888 27.792 17.8608 27.472C17.7328 27.152 17.2848 26.992 16.5168 26.992H13.0128V34H9.31681Z" fill="#A86D06"/>
</svg>
