<svg width="19" height="34" viewBox="0 0 19 34" fill="none" xmlns="http://www.w3.org/2000/svg">
<path d="M5.79988 23.536V0.591998H9.49588V23.536C9.94388 23.184 10.5199 22.688 11.2239 22.048C11.9279 21.408 12.5359 20.576 13.0479 19.552C13.7839 18.08 14.2159 16.8 14.3439 15.712C14.4719 14.624 14.5359 13.712 14.5359 12.976V0.591998H18.2799V12.976C18.2799 14.864 18.0239 16.736 17.5119 18.592C16.9999 20.416 16.0079 22.048 14.5359 23.488C15.4639 23.744 16.1839 24.096 16.6959 24.544C17.2079 24.992 17.5759 25.472 17.7999 25.984C18.0559 26.464 18.1999 26.96 18.2319 27.472C18.2639 27.952 18.2799 28.384 18.2799 28.768V34H14.5359V28.672C14.5359 28.192 14.4719 27.792 14.3439 27.472C14.2159 27.152 13.7679 26.992 12.9999 26.992H9.49588V34H5.79988V26.992H2.63188L0.471875 23.536H5.79988Z" fill="#A86D06"/>
</svg>
