<svg width="12" height="12" viewBox="0 0 12 12" fill="none" xmlns="http://www.w3.org/2000/svg">
<path d="M4.82422 1.32617C4.57031 1.58008 4.5957 1.96094 4.82422 2.21484L7.89648 5.10938H0.609375C0.253906 5.10938 0 5.38867 0 5.71875V6.53125C0 6.88672 0.253906 7.14062 0.609375 7.14062H7.89648L4.82422 10.0605C4.5957 10.3145 4.5957 10.6953 4.82422 10.9492L5.38281 11.5078C5.63672 11.7363 6.01758 11.7363 6.24609 11.5078L11.1973 6.55664C11.4258 6.32812 11.4258 5.94727 11.1973 5.69336L6.24609 0.767578C6.01758 0.539062 5.63672 0.539062 5.38281 0.767578L4.82422 1.32617Z" fill="#000"/>
</svg>
