<svg width="100%" height="100%" viewBox="0 0 142 102" fill="none" xmlns="http://www.w3.org/2000/svg">
<path d="M109.1 53.144C108.7 52.6686 108.2 52.1933 107.8 51.7179C107.2 50.9574 106.6 50.1968 106.1 49.4363C105.1 48.0102 104 46.7743 102.4 45.9187C101.8 45.6335 101.2 45.4434 100.5 45.4434C100.1 45.4434 99.8 45.6335 99.7 46.0138C99.6 46.2039 99.6 46.4891 99.6 46.6793C99.6 48.1053 99.6 49.5313 99.6 50.9574C99.6 51.6229 99.8 52.1933 100.6 52.4785C100.7 52.5736 100.8 52.7637 100.9 52.8588C100.8 52.9538 100.6 53.0489 100.5 53.0489C97.3 53.0489 94.1 53.0489 90.9 53.0489C87.5 53.0489 84.1 53.0489 80.7 53.0489C80.3 53.0489 80 53.144 79.6 53.0489C79.5 53.0489 79.3 52.8588 79.3 52.7637C79.3 52.6686 79.4 52.4785 79.5 52.3834C79.5 52.2884 79.7 52.2884 79.7 52.2884C80.5 52.1933 80.7 51.9081 80.8 51.1475C80.8 50.482 80.8 49.8166 80.8 49.1511C80.8 48.2954 80.8 47.4398 80.8 46.5842C80.8 46.1088 80.6 45.9187 80.1 45.8236C79.9 45.8236 79.8 45.7286 79.6 45.7286C78.1 45.7286 76.5 45.7286 75 45.7286C74.4 45.7286 74.1 46.0138 74.1 46.5842C74.1 48.0102 74.1 49.4363 74.1 50.9574C74.1 51.3377 74.2 51.6229 74.4 51.9081C74.5 52.0982 74.8 52.1933 75 52.3834C75.1 52.4785 75.3 52.4785 75.4 52.4785C75.5 52.5736 75.5 52.6686 75.5 52.7637C75.5 52.8588 75.4 52.8588 75.3 52.9538C75.2 52.9538 75.2 52.9538 75.1 52.9538C72.9 52.9538 70.8 52.9538 68.6 52.9538C68.4 52.9538 68.3 52.8588 68.1 52.7637C68.2 52.6686 68.3 52.4785 68.5 52.3834C69.3 52.0982 69.7 51.5278 69.7 50.6722C69.7 46.8694 69.7 43.0666 69.7 39.2638C69.7 38.5983 69.4 38.123 68.8 37.8378C68.7 37.7427 68.7 37.6476 68.6 37.4575C68.7 37.3624 68.8 37.2674 68.9 37.2674C71 37.2674 73.2 37.2674 75.3 37.2674C75.4 37.2674 75.5 37.3624 75.7 37.4575C75.6 37.5526 75.5 37.7427 75.4 37.7427C74.3 38.0279 74.2 38.7885 74.2 39.6441C74.2 41.0702 74.2 42.4011 74.2 43.8272C74.2 44.4927 74.3 44.5877 75 44.5877C76.7 44.5877 78.4 44.5877 80.1 44.5877C80.5 44.5877 80.7 44.3976 80.7 44.0173C80.7 42.4011 80.7 40.7849 80.7 39.1688C80.7 38.3131 80.3 37.8378 79.4 37.6476C79.3 37.6476 79.3 37.6476 79.2 37.6476C79.1 37.5526 78.9 37.4575 78.8 37.3624C79 37.2674 79.1 37.2674 79.3 37.1723C79.5 37.1723 79.6 37.1723 79.8 37.1723C88.2 37.1723 96.6 37.1723 105 37.1723C105.6 37.1723 106.2 37.2674 106.8 37.4575C109.2 38.0279 110.2 39.7392 109.6 42.0208C109.1 43.637 108 44.6828 106.3 45.0631C106.1 45.0631 106 45.1581 105.8 45.2532C105.9 45.4434 106 45.6335 106.2 45.7286C108.5 47.3447 110.7 49.1511 112.6 51.2426C113.1 52.1933 113.9 52.0982 114.8 52.0032C117.9 51.5278 120.9 51.3377 124 51.4327C126.9 51.5278 129.8 51.7179 132.7 52.2884C134 52.5736 135.3 52.9538 136.4 53.6193C136.8 53.9045 137.3 54.1898 137.6 54.57C138.6 55.6158 138.5 56.9468 137.3 57.8975C136.4 58.658 135.4 59.0383 134.3 59.3235C132 59.8939 129.6 59.989 127.3 59.7989C124.7 59.5136 122.1 59.1334 119.6 58.4679C116.1 57.5172 113 55.901 110.2 53.7144C110 53.5243 109.7 53.5243 109.5 53.6193C106.5 54.1898 103.5 54.7602 100.5 55.4257C92.2 57.327 84.1 59.7989 76.2 62.746C70.9 64.7425 65.7 66.6439 60.3 68.3551C55 70.3516 49.6 71.8727 44.1 72.9184C39.6 73.8691 35.1 74.4396 30.4 74.3445C25 74.2494 19.8 73.3938 14.9 71.1121C10.9 69.3058 7.60001 66.6439 5.60001 62.8411C4.40001 60.7495 3.80001 58.4679 3.50001 56.0911C3.10001 52.9538 3.40001 49.9116 4.60001 46.9645C6.10001 43.1617 8.50001 40.0244 12.2 37.8378C14.4 36.5068 16.9 35.8413 19.5 36.0315C19.9 36.0315 20.4 36.1265 20.8 36.2216C20.9 36.2216 21.1 36.4117 21 36.5068C21 36.6019 20.8 36.697 20.7 36.792C20.6 36.792 20.5 36.792 20.4 36.792C18.7 36.3167 17 36.697 15.4 37.1723C11.9 38.2181 9.50001 40.4997 8.00001 43.637C6.80001 45.7286 6.30001 48.0102 6.00001 50.387C5.40001 56.1862 7.50001 61.0348 11.6 65.2178C14.1 67.7847 17.3 69.3058 20.8 70.2565C23.5 71.0171 26.2 71.3973 29 71.4924C32.6 71.6825 36.1 71.3973 39.6 70.922C51.5 69.4009 62.9 66.2636 74.2 62.3657C78.8 60.7495 83.5 59.5136 88.1 58.1827C94 56.4714 100.1 55.0454 106.1 53.8095C107.2 53.5243 108.1 53.4292 109.1 53.144C109.1 53.2391 109.1 53.144 109.1 53.144ZM114.2 53.2391C114.3 53.4292 114.3 53.4292 114.3 53.4292C114.4 53.5243 114.5 53.6193 114.5 53.7144C116.5 55.6158 118.8 56.9468 121.4 57.8975C123.8 58.7531 126.3 59.2284 128.8 59.3235C130.8 59.3235 132.9 59.3235 134.9 58.7531C135.7 58.5629 136.4 58.2777 137 57.7073C137.8 56.9468 137.8 56.1862 137 55.4257C136.7 55.1404 136.4 54.8552 136 54.7602C134.9 54.3799 133.8 53.9045 132.7 53.6193C129.4 52.8588 126 52.4785 122.5 52.6686C119.8 52.8588 117 53.0489 114.2 53.2391ZM95.4 45.0631C95.4 43.2568 95.4 41.4504 95.4 39.549C95.4 38.6934 94.9 38.123 94.1 38.123C93.3 38.123 92.8 38.6934 92.8 39.549C92.8 43.1617 92.8 46.7743 92.8 50.482C92.8 51.4327 93.5 52.0031 94.2 51.9081C95 51.9081 95.5 51.3377 95.5 50.387C95.4 48.6757 95.4 46.8694 95.4 45.0631ZM88.1 45.0631C88.1 43.2568 88.1 41.3554 88.1 39.549C88.1 39.3589 88.1 39.1688 88 38.9786C87.8 38.4082 87.2 38.0279 86.5 38.123C85.8 38.2181 85.4 38.7885 85.4 39.549C85.4 43.2568 85.4 46.8694 85.4 50.5771C85.4 50.7672 85.4 50.9574 85.5 51.1475C85.7 51.7179 86.3 52.0982 87 52.0032C87.6 51.9081 88.1 51.4327 88.1 50.7672C88.2 48.8659 88.1 46.9645 88.1 45.0631ZM99.7 42.211C99.7 42.211 99.8 42.211 99.7 42.211C99.7 42.6863 99.7 43.1617 99.7 43.542C99.7 44.2074 100 44.4927 100.7 44.4927C101.1 44.4927 101.5 44.4927 102 44.4927C102.6 44.4927 103.1 44.4927 103.7 44.3976C105.6 43.9222 106.3 42.1159 105.9 40.3096C105.6 39.1688 104.2 38.2181 102.8 38.2181C102.2 38.2181 101.5 38.2181 100.9 38.2181C100.1 38.2181 99.8 38.4082 99.8 39.1688C99.7 40.1195 99.7 41.1652 99.7 42.211Z" fill="#A76F29"/>
<path d="M54.5 45.5384C54.5 43.637 54.5 41.7356 54.5 39.8342C54.5 39.1688 54.3 38.5983 53.7 38.123C53.6 38.0279 53.5 37.8378 53.5 37.7427C53.6 37.6476 53.8 37.5526 53.9 37.5526C54.1 37.5526 54.2 37.5526 54.4 37.5526C57.8 37.5526 61.1 37.5526 64.5 37.5526C67.3 37.5526 69 39.454 69.1 41.7356C69.3 44.4926 67.4 46.1088 64.9 46.2039C63.1 46.2039 61.4 46.299 59.6 46.394C58.9 46.394 58.8 46.5842 58.8 47.1546C58.8 48.4856 58.8 49.8165 58.9 51.1475C58.9 51.7179 59 52.3834 59.6 52.8588C59.8 52.9538 59.7 53.144 59.5 53.239C59.4 53.239 59.3 53.239 59.1 53.239C55 53.239 51 53.239 46.9 53.239C46.7 53.144 46.5 53.0489 46.4 53.0489C46.6 52.9538 46.7 52.7637 46.9 52.7637C48.2 52.4785 48.4 52.1933 47.9 50.9574C47.4 49.8165 47 48.5806 46.6 47.4398C46.3 46.5842 46.2 46.5842 45.6 46.5842C44.6 46.5842 43.6 46.5842 42.7 46.5842C42.1 46.5842 41.9 46.6792 41.7 47.2497C41.2 48.4856 40.8 49.6264 40.4 50.8623C40.3 51.0524 40.2 51.3377 40.2 51.5278C40.1 52.0031 40.2 52.2883 40.6 52.5736C40.7 52.6686 40.8 52.7637 40.8 52.8588C40.7 52.9538 40.6 53.0489 40.4 53.0489C39 53.0489 37.5 53.0489 36.1 53.0489C36 53.0489 35.9 52.9538 35.8 52.8588C35.9 52.7637 35.9 52.5736 36.1 52.5736C36.3 52.4785 36.5 52.4785 36.7 52.4785C37.4 52.2883 37.9 51.9081 38.2 51.3377C40.4 46.2039 42.6 40.9751 44.8 35.8413C44.8 35.7462 44.9 35.6512 44.9 35.5561C45 35.461 45.1 35.366 45.2 35.366C45.3 35.366 45.4 35.461 45.4 35.5561C47.2 39.549 49.1 43.4469 50.9 47.4398C51.5 48.7708 52.1 50.1017 52.8 51.4327C53 51.813 53.2 52.0982 53.5 52.4785C53.8 52.8588 54.3 52.7637 54.5 52.3834C54.6 52.0982 54.7 51.813 54.7 51.6229C54.6 49.4363 54.5 47.5349 54.5 45.5384ZM58.6 41.9258C58.6 42.6863 58.6 43.4469 58.6 44.3025C58.6 44.7779 58.8 45.0631 59.3 45.0631C60 45.1581 60.6 45.1581 61.3 45.1581C61.7 45.1581 62.2 45.0631 62.6 44.968C64.4 44.5877 65.6 43.7321 65.6 41.5455C65.6 39.8342 64.7 38.8835 63 38.8835C61.8 38.8835 60.6 38.8835 59.4 38.8835C58.9 38.8835 58.6 39.0737 58.6 39.6441C58.6 40.3096 58.6 41.0701 58.6 41.9258ZM44 45.3483C44.4 45.3483 44.8 45.3483 45.1 45.3483C45.5 45.3483 45.6 45.1581 45.4 44.8729C45.3 44.5877 45.2 44.3976 45.1 44.1124C44.9 43.637 44.6 43.0666 44.4 42.5913C44.3 42.4011 44.1 42.306 43.9 42.211C43.8 42.211 43.6 42.4011 43.5 42.5913C43.3 43.0666 43.1 43.4469 42.9 43.9222C42.8 44.2074 42.6 44.4926 42.5 44.8729C42.4 45.1581 42.5 45.3483 42.9 45.3483C43.3 45.3483 43.7 45.3483 44 45.3483Z" fill="#A76F29"/>
<path d="M34.4 30.2322C34.4 31.1829 34.4 32.1336 34.4 33.0843C34.4 33.1793 34.3 33.3695 34.2 33.4645C34.1 33.3695 34 33.2744 33.9 33.1793C32.9 31.4681 31.6 30.1371 29.5 29.5667C29.1 29.4716 28.5 29.4716 28.1 29.5667C26.7 29.8519 26.1 30.8977 26.4 32.2286C26.7 33.4645 27.5 34.4152 28.5 35.1758C31.1 37.2673 33.3 39.6441 34.8 42.4962C35.7 44.2074 36.3 45.9187 36.2 47.82C36.2 49.2461 35.8 50.5771 35.1 51.813C33.8 53.9996 31.6 54.6651 29.1 54.57C27.7 54.4749 26.4 54.1897 25.1 53.7144C24.1 53.3341 22.6 53.6193 22.1 54.57C22.1 54.6651 22 54.7601 21.9 54.7601C21.8 54.8552 21.5 54.9503 21.5 54.8552C21.4 54.7601 21.3 54.57 21.3 54.3798C21.3 53.8094 21.4 53.1439 21.4 52.5735C21.3 50.6721 21.1 48.6757 20.9 46.7743C20.9 46.6792 20.9 46.5841 20.9 46.4891C21 46.394 21.1 46.2039 21.1 46.1088C21.2 46.2039 21.3 46.2989 21.4 46.394C22 48.6757 23.5 50.3869 25.7 51.6228C26.7 52.0982 27.6 52.4785 28.8 52.5735C30.2 52.6686 31.3 52.1932 32.1 51.0524C32.9 49.9116 32.9 48.7707 32.2 47.6299C31.8 47.0595 31.4 46.394 30.9 45.9187C28.2 43.1616 25.8 40.1194 23.6 37.0772C22.2 34.9857 22.2 32.7991 23.5 30.7075C24.9 28.4259 27.8 27.285 30.9 28.5209C31.3 28.7111 31.6 28.9012 32 29.0913C32.7 29.4716 33.3 29.3766 33.8 28.8061C33.9 28.7111 34.1 28.7111 34.2 28.616C34.2 28.7111 34.3 28.9012 34.3 28.9963C34.3 29.4716 34.3 29.8519 34.3 30.3273C34.4 30.2322 34.4 30.2322 34.4 30.2322Z" fill="#A76F29"/>
<path d="M77.1 19.6794C77.2 19.3942 77.2 19.2992 77.3 19.109C76.9 19.3942 76.6 19.7745 76 19.4893C76.4 19.2041 76.7 18.7287 77.1 18.5386C78 17.9682 78.5 17.3027 78.4 16.352C78.3 15.7816 78.3 15.2112 78.4 14.6407C78.5 13.9753 78.2 13.4048 77.7 13.0246C76.9 12.4541 76.2 11.6936 75.6 10.933C75.1 10.2675 74.4 9.88727 73.7 9.50699C73.4 9.31685 73.1 9.12671 72.9 8.93657C72.8 8.8415 72.7 8.74643 72.5 8.74643C72.2 8.65136 72 8.74643 72 9.12671C72 9.31685 71.9 9.50699 71.8 9.7922C71.9 9.98234 71.9 10.4577 72.3 10.7429C72.5 10.838 72.3 11.2182 71.9 11.5035C71.4 10.838 71.2 10.0774 71.1 9.22178C71 8.8415 71.1 8.55629 71.4 8.27109C71.6 8.08095 71.8 7.79574 72 7.6056C72.3 7.22532 72.6 7.13025 73.1 7.51053C73.3 7.70067 73.5 7.89081 73.6 8.08095C74.1 7.6056 74.6 7.22532 75 6.84504C75.1 6.74997 75.1 6.74997 75.1 6.6549C75.4 6.08449 75.7 5.60914 75.9 5.03872C76 4.94365 76 4.75351 75.9 4.65844C75.9 4.56337 75.6 4.56337 75.5 4.56337C75 4.65844 74.5 4.75351 74.1 4.84858C73.9 4.84858 73.6 4.75351 73.4 4.56337C73.3 4.37323 73.1 3.99296 73.5 3.80282C74.3 3.32747 75.1 2.85212 75.8 2.2817C76 1.9965 76 1.90143 76 1.80636C76.1 1.61622 76.1 1.42608 76.2 1.14087C76.5 1.61622 76.6 1.9965 76.9 2.2817C77.2 2.56691 77.7 2.66198 78.1 2.94719C78 3.04226 78 3.13733 77.9 3.13733C78.3 3.61268 78.7 4.08803 79.1 4.65844C79 4.65844 79 4.75351 78.9 4.75351C78.8 4.65844 78.6 4.65844 78.5 4.56337L78.4 4.65844C78.5 4.84858 78.7 5.03872 78.9 5.22886C78.3 5.419 78.8 5.60914 78.8 5.89435C78.7 5.89435 78.6 5.89435 78.5 5.98942C78.6 6.08449 78.6 6.17956 78.7 6.36969C78.5 6.36969 78.4 6.27462 78.3 6.27462C78.3 6.36969 78.3 6.36969 78.3 6.36969C78.4 7.03518 78.6 7.70067 78.7 8.36616C78.8 9.22178 79.5 9.7922 80.1 10.3626C80.5 10.7429 80.9 11.0281 81.3 11.5035C81.6 11.8837 81.8 12.3591 82 12.7394C82.1 13.2147 82.4 13.3098 82.8 13.4048C83 13.4048 83.2 13.4048 83.5 13.4999C84.5 13.6901 85 14.5457 84.7 15.5914C84.6 15.9717 84.4 16.2569 84.3 16.6372C84 17.2076 83.8 17.683 83.5 18.2534C83.5 18.3485 83.4 18.4435 83.3 18.4435C83.3 18.1583 83.3 17.778 83.3 17.4928C83 17.683 82.8 17.778 82.5 17.9682C82.6 17.778 82.6 17.4928 82.7 17.3978C82.9 16.9224 83.1 16.352 83.4 15.8767C83.8 15.021 83.6 14.2605 82.7 13.8802C82.6 13.8802 82.3 13.9753 82.2 14.0703C81.9 14.926 81.2 15.4013 80.3 15.6865C79.8 15.8766 80 16.2569 79.9 16.5421C79.9 16.8273 79.9 17.0175 80 17.3027C80.1 17.683 80 17.8731 79.6 17.9682C79.2 18.1583 78.9 18.4435 78.6 18.7287C78.4 19.0139 78 19.109 78 19.5844C77.8 19.5844 77.4 19.6794 77.1 19.6794ZM73.2 8.27109C72.8 7.6056 72.6 7.6056 72.2 7.98588C72.5 8.08095 72.8 8.17602 73.2 8.27109Z" fill="#A76F29"/>
<path d="M64.1 19.5839C63.9 19.5839 63.6 19.679 63.4 19.5839C63.2 19.4889 63.1 19.2987 63 19.2036L62.9 19.2987C62.9 19.3938 63 19.4889 63 19.5839C62.5 19.7741 62.5 19.679 62.2 19.2987C61.8 18.8234 61.3 18.4431 60.8 18.0628C60.5 17.8727 60.3 17.6825 60.4 17.3023C60.5 16.922 60.5 16.4466 60.4 16.0663C60.4 15.9713 60.2 15.7811 60.1 15.7811C59.2 15.4959 58.6 15.0206 58.2 14.165C58.1 13.8797 57.9 13.7847 57.6 13.9748C56.7 14.6403 56.6 15.0206 57.1 16.0663C57.4 16.6368 57.6 17.3023 57.9 17.8727C57.9 17.8727 57.8 17.8727 57.8 17.9677C57.6 17.8727 57.3 17.6825 57.1 17.5875C57.1 17.9677 57.1 18.2529 57.1 18.5382H57C57 18.4431 56.9 18.348 56.9 18.2529C56.6 17.6825 56.4 17.2072 56.1 16.6368C55.9 16.1614 55.7 15.591 55.6 15.1157C55.5 14.26 56.2 13.5945 57.1 13.4995C57.3 13.4995 57.5 13.4995 57.6 13.4995C58 13.4044 58.3 13.3093 58.3 12.9291C58.4 12.1685 58.9 11.5981 59.4 11.1227C59.6 10.9326 59.8 10.8375 60 10.6474C60.9 9.88683 61.6 9.12627 61.6 7.89037C61.6 7.41502 61.8 6.93967 61.9 6.36925C61.8 6.36925 61.7 6.36925 61.5 6.46432C61.6 6.36925 61.6 6.17911 61.7 6.08404C61.6 6.08404 61.5 6.08404 61.4 6.08404C61.3 5.8939 61.9 5.51363 61.3 5.41856C61.5 5.22842 61.6 5.03828 61.8 4.84814L61.7 4.75307C61.6 4.84814 61.4 4.84814 61.3 4.94321C61.3 4.94321 61.2 4.94321 61.2 4.84814C61.6 4.37279 62 3.89744 62.4 3.32703C62.3 3.23196 62.2 3.23196 62.1 3.13689C62.6 2.94675 63 2.75661 63.3 2.4714C63.6 2.18619 63.8 1.80591 64 1.33057C64.1 1.42564 64.2 1.61578 64.2 1.71084C64.2 2.09112 64.4 2.18619 64.7 2.37633C65.4 2.75661 66.1 3.32703 66.7 3.70731C67 3.80237 66.8 4.18265 66.7 4.37279C66.6 4.56293 66.2 4.658 66 4.56293C65.5 4.46786 65 4.37279 64.5 4.27772C64.2 4.18265 64.1 4.46786 64.2 4.658C64.7 5.41856 64.8 6.36925 65.6 7.03474C65.9 7.31995 66.2 7.60516 66.6 8.0805C66.7 7.89037 66.7 7.70023 66.9 7.60516C67.4 7.12981 67.8 6.8446 68.3 7.70023C68.4 7.7953 68.4 7.98544 68.6 8.0805C69.6 8.84106 69.1 9.69669 68.8 10.4572C68.7 10.7425 68.6 11.1227 68.4 11.503C67.8 11.1227 67.8 10.9326 68.2 10.4572C68.4 10.2671 68.4 9.88683 68.4 9.60162C68.4 9.50655 68.3 9.31641 68.3 9.12627C68.3 8.65092 68 8.55585 67.6 8.74599C67.1 9.0312 66.6 9.50655 66 9.79176C65 10.2671 64.6 11.1227 64 11.7882C63.6 12.2636 63.1 12.6438 62.6 13.0241C62.1 13.4044 61.8 13.8797 61.8 14.5452C61.9 15.2107 61.8 15.8762 61.8 16.5417C61.8 17.3973 62.2 18.0628 63 18.5382C63.4 18.8234 63.8 19.2036 64.2 19.4889L64.1 19.5839ZM67 8.27064C67.4 8.17557 67.7 8.0805 68 7.98543C67.6 7.60516 67.4 7.60516 67 8.27064Z" fill="#A76F29"/>
<path d="M59.7 20.8203C59.5 20.345 59.4 19.9647 59.3 19.4894C59.2 19.1091 59.3 18.7288 59.7 18.6337C60 18.5387 60.3 18.5387 60.6 18.6337C61 18.8239 61.1 19.2041 61 19.5844C60.9 19.9647 60.7 20.345 60.6 20.7253C60.7 20.8203 60.7 20.9154 60.8 21.0105C61.3 21.4858 61.7 21.676 62.5 21.4858C65.1 20.7253 67.4 21.3907 69.3 23.1971C69.4 23.2921 69.5 23.3872 69.5 23.3872C69.6 23.4823 69.6 23.5773 69.8 23.6724C70 23.4823 70.2 23.1971 70.3 23.102C72.4 21.2006 74.8 20.7253 77.6 21.5809C77.8 21.676 78 21.5809 78.1 21.4858C78.4 21.2957 78.7 21.0105 79 20.7253C78.8 20.345 78.6 19.9647 78.6 19.6795C78.6 19.3943 78.6 19.1091 78.8 18.8239C79 18.4436 79.4 18.4436 79.8 18.5387C80.1 18.6337 80.4 19.1091 80.3 19.4894C80.2 19.8696 80 20.2499 79.9 20.7253C80.2 20.9154 80.5 21.2957 80.9 21.5809C81 21.676 81.1 21.676 81.2 21.5809C82.2 21.2006 83.3 21.1055 84.3 21.4858C84.4 21.4858 84.6 21.4858 84.7 21.3907C85 21.2957 85.3 21.1055 85.6 21.1055C86.2 21.0105 86.7 21.3907 86.7 21.9612C86.7 22.5316 86.3 22.9119 85.7 22.9119C85.4 22.9119 85.1 22.7217 84.7 22.6266C84.6 22.6266 84.4 22.5316 84.2 22.5316C83.2 22.9119 82.2 22.9119 81.2 22.4365C81.1 22.3414 80.9 22.4365 80.7 22.4365C80.4 22.7217 80.1 23.0069 79.8 23.1971C79.9 23.5773 80.1 23.9576 80.2 24.3379C80.3 24.9083 80 25.3837 79.4 25.4787C78.9 25.4787 78.4 25.0985 78.5 24.528C78.5 24.2428 78.7 23.8626 78.8 23.5773C78.9 23.3872 78.9 23.2921 78.8 23.102L78.7 23.0069C78.2 22.5316 77.8 22.2464 77 22.5316C75.6 23.0069 74.1 22.9119 72.6 22.4365C72.3 22.3414 72.1 22.3414 71.9 22.5316C71.4 22.9119 70.9 23.2921 70.3 23.7675C70 23.9576 70 24.1478 70.2 24.433C70.7 25.2886 71 26.2393 70.7 27.2851C70.6 27.5703 70.5 27.7604 70.3 27.9505C69.9 28.521 69.3 28.521 68.9 27.9505C68.4 27.19 68.3 26.4294 68.5 25.5738C68.6 25.1935 68.8 24.7182 69 24.3379C69.2 24.0527 69.1 23.9576 68.9 23.7675C68.6 23.5773 68.4 23.2921 68.1 23.102C67.5 22.6266 66.9 22.3414 66 22.6266C64.6 23.102 63.1 23.0069 61.8 22.5316C61.5 22.4365 61.3 22.4365 61.1 22.6266C61 22.7217 60.8 22.8168 60.7 22.9119C60.2 23.3872 60.2 23.2921 60.5 23.9576C60.6 24.2428 60.7 24.6231 60.7 25.0034C60.7 25.4787 60.2 25.6689 59.8 25.6689C59.4 25.5738 59 25.2886 59.1 24.8132C59.1 24.3379 59.3 23.8626 59.4 23.2921C59.2 23.102 58.8 22.8168 58.5 22.5316C58.4 22.4365 58.3 22.4365 58.2 22.5316C57.2 23.0069 56.1 23.0069 55.1 22.6266C55 22.6266 54.8 22.6266 54.7 22.7217C54.3 22.8168 54 23.0069 53.6 23.0069C53 23.102 52.7 22.6266 52.6 22.1513C52.6 21.5809 53 21.2006 53.6 21.2957C53.9 21.2957 54.3 21.4858 54.6 21.5809C54.8 21.5809 55 21.676 55.1 21.5809C56.1 21.2006 57.1 21.2957 58.1 21.676C58.2 21.771 58.4 21.771 58.5 21.676C59.1 21.2957 59.4 21.0105 59.7 20.8203ZM69.9 24.6231C69 25.6689 69.1 27.2851 69.9 27.8555C70.7 26.9998 70.7 25.7639 69.9 24.6231ZM61.2 22.0562C60.8 21.771 60.5 21.4858 60.1 21.2006C59.8 21.4858 59.5 21.8661 59.2 22.1513C59.5 22.4365 59.8 22.7217 60.1 23.0069C60.5 22.6266 60.8 22.3414 61.2 22.0562ZM73.3 22.0562C74.2 22.5316 76.6 22.4365 77.1 22.0562C75.9 21.5809 74.5 21.5809 73.3 22.0562ZM62.6 22.0562C63.3 22.5316 65.8 22.5316 66.3 22.0562C65.2 21.5809 63.7 21.5809 62.6 22.0562ZM79.6 22.9119C79.9 22.6266 80.3 22.3414 80.6 22.0562C80.2 21.771 79.9 21.4858 79.6 21.2006C79.3 21.4858 78.9 21.771 78.6 22.0562C78.9 22.3414 79.3 22.6266 79.6 22.9119ZM57.8 22.0562C57.1 21.771 56.4 21.771 55.8 22.0562C56.4 22.3414 57.1 22.3414 57.8 22.0562ZM81.9 22.0562C82.6 22.3414 83.4 22.3414 84 22.0562C83.4 21.771 82.4 21.771 81.9 22.0562ZM54.6 22.1513C54.6 22.0562 54.6 22.0562 54.6 21.9612C54.3 21.8661 54.1 21.771 53.8 21.771C53.7 21.771 53.5 21.9612 53.5 22.0562C53.5 22.1513 53.7 22.3414 53.8 22.3414C54.1 22.3414 54.3 22.2464 54.6 22.1513ZM85.1 21.9612C85.1 22.0562 85.1 22.0562 85.1 22.1513C85.3 22.2464 85.6 22.3414 85.8 22.4365C86 22.5316 86.2 22.3414 86.2 22.1513C86.2 21.8661 86 21.771 85.7 21.771C85.6 21.771 85.4 21.8661 85.1 21.9612ZM79.7 23.9576C79.6 23.9576 79.6 23.9576 79.5 23.9576C79.4 24.2428 79.3 24.433 79.3 24.7182C79.3 24.8132 79.5 24.9083 79.6 25.0034C79.7 24.9083 79.8 24.7182 79.8 24.6231C79.8 24.433 79.7 24.2428 79.7 23.9576ZM60.2 23.9576C60.1 23.9576 60.1 23.9576 60 23.9576C59.9 24.1478 59.8 24.433 59.8 24.6231C59.8 24.7182 60 24.9083 60.1 25.0034C60.2 24.9083 60.4 24.7182 60.4 24.6231C60.4 24.433 60.3 24.1478 60.2 23.9576ZM60.1 20.1548C60.2 20.1548 60.2 20.1548 60.3 20.1548C60.4 19.8696 60.4 19.5844 60.4 19.2992C60.4 19.2041 60.2 19.1091 60.1 19.014C60 19.1091 59.9 19.2041 59.9 19.2992C59.9 19.6795 60 19.8696 60.1 20.1548ZM79.5 20.1548C79.6 20.1548 79.6 20.1548 79.7 20.1548C79.8 19.9647 79.9 19.6795 79.9 19.4894C79.9 19.3943 79.8 19.2041 79.7 19.1091C79.6 19.2041 79.4 19.2992 79.4 19.3943C79.3 19.6795 79.4 19.8696 79.5 20.1548Z" fill="#A76F29"/>
<path d="M74.8 11.5986C74.8 13.7852 75 15.9718 74 18.0634C73.2 19.6795 72.2 21.0105 70.4 21.8661C70.1 21.9612 69.9 21.9612 69.6 21.8661C67.6 20.9154 66.5 19.2042 65.8 17.2077C65.5 16.257 65.3 15.2113 65.3 14.2606C65.3 13.405 65.3 12.4543 65.3 11.5986C68.5 11.5986 71.6 11.5986 74.8 11.5986ZM74.6 11.7888C71.6 11.7888 68.6 11.7888 65.6 11.7888C65.6 12.8345 65.6 13.7852 65.6 14.831C68.6 14.831 71.6 14.831 74.6 14.831C74.6 13.7852 74.6 12.8345 74.6 11.7888ZM68.2 17.1127C69.2 17.0176 69.3 17.6831 69.5 18.3486C69.8 18.3486 70 18.3486 70.3 18.3486C70.4 18.3486 70.5 18.2535 70.6 18.1584C70.7 17.8732 70.8 17.588 71 17.3979C71.2 17.2077 71.6 17.2077 71.9 17.1127C71.9 16.8275 71.7 16.6373 71.4 16.5422C70.8 16.3521 70.4 16.5422 70.1 17.0176C69.6 16.5422 69.3 16.4472 68.9 16.5422C68.5 16.4472 68.3 16.7324 68.2 17.1127ZM69.3 19.6795C69.8 19.6795 70.3 19.6795 70.9 19.6795C70.8 18.919 70.8 18.7288 70.3 18.7288C69.4 18.7288 69.4 18.7288 69.3 19.6795ZM69.4 18.4436C69.4 18.5387 69.4 18.5387 69.4 18.4436C69.8 18.5387 70.2 18.5387 70.6 18.5387C70.6 18.5387 70.6 18.5387 70.6 18.4436C70.3 18.4436 69.9 18.4436 69.4 18.4436Z" fill="#A76F29"/>
<path d="M93.4 32.5138C93.4 34.13 92 35.3659 90.3 35.3659C88.6 35.3659 87.2 34.0349 87.3 32.4187C87.3 30.7075 88.8 29.4716 90.6 29.5667C92.1 29.6617 93.4 30.8976 93.4 32.5138Z" fill="#A76F29"/>
<path d="M69.8 93.9287C70.6 93.9287 71.4 93.9287 72.2 93.9287C73.1 93.9287 73.7 94.4991 73.8 95.1646C73.9 95.8301 73.5 96.4956 72.7 96.8759C72.6 96.8759 72.5 96.9709 72.3 97.066C73.1 97.9216 73.7 98.8723 74.7 99.6329C74.7 99.4427 74.8 99.2526 74.8 99.0625C74.8 97.6364 74.8 96.2104 74.8 94.7843C74.8 94.4991 74.7 94.2139 74.6 93.9287C75.1 93.9287 75.6 93.9287 76 93.9287C75.9 94.309 75.8 94.6893 75.8 94.9745C75.8 96.2104 75.8 97.5413 75.8 98.7773C75.8 99.0625 75.9 99.4427 76 99.823C75.3 99.823 74.5 99.7279 73.7 99.7279C73.5 99.7279 73.3 99.5378 73.2 99.4427C72.5 98.5871 71.8 97.7315 71 96.7808C71.4 96.6857 71.6 96.5907 71.9 96.4956C72.5 96.2104 72.8 95.735 72.6 95.1646C72.5 94.6893 71.8 94.4041 71.2 94.4991C71.1 94.4991 71 94.5942 70.8 94.5942C70.8 94.9745 70.8 95.2597 70.8 95.64C70.8 96.6857 70.8 97.7315 70.8 98.7773C70.8 99.1575 70.9 99.4427 71 99.823C70.6 99.823 70 99.823 69.5 99.823C69.6 99.4427 69.7 99.1575 69.7 98.7773C69.7 97.4463 69.7 96.1153 69.7 94.6893C70 94.4991 69.9 94.2139 69.8 93.9287Z" fill="#A76F29"/>
<path d="M34.3 82.5204C33.6 84.1366 33 85.7528 32.3 87.464C31.8 87.2739 31.6 86.8936 31.5 86.5133C31 85.3725 30.4 84.1366 29.9 82.9007C29.8 82.8056 29.8 82.6155 29.7 82.5204C29.6 83.3761 29.4 84.3267 29.3 85.1824C29.2 85.5626 29.2 85.9429 29.2 86.2281C29.2 86.6084 29.3 86.8936 29.3 87.2739C29 87.2739 28.5 87.2739 28 87.2739C28.6 86.3232 28.5 85.1824 28.7 84.1366C28.8 83.4711 28.9 82.8056 29 82.1401C29 81.8549 28.9 81.5697 28.9 81.2845C29.3 81.2845 29.8 81.2845 30.4 81.2845C31 82.7106 31.7 84.1366 32.3 85.5626C32.9 84.0415 33.5 82.6155 34.1 81.1895C34.6 81.1895 35.1 81.1895 35.4 81.1895C35.4 81.6648 35.4 82.1401 35.5 82.7106C35.6 83.8514 35.8 84.9922 36 86.1331C36.1 86.5133 36.2 86.7985 36.3 87.1788C35.8 87.1788 35.3 87.1788 34.8 87.1788C34.8 86.8936 34.9 86.6084 34.9 86.3232C34.8 85.1824 34.6 83.8514 34.3 82.5204C34.4 82.6155 34.4 82.5204 34.3 82.5204Z" fill="#A76F29"/>
<path d="M83.5 81.2844C85.6 81.2844 87.1 82.8055 86.9 84.7069C86.7 86.5133 84.8 87.7492 82.8 87.4639C80.3 87.0837 79.1 84.6119 80.5 82.7105C81.2 81.7598 82.3 81.2844 83.5 81.2844ZM81.1 84.3266C81.1 84.9921 81.3 85.5626 81.7 86.133C82.3 86.7985 83.1 87.0837 84.1 86.8935C85 86.7034 85.5 86.133 85.7 85.3724C85.8 84.9921 85.8 84.5168 85.7 84.1365C85.5 82.9957 84.4 82.045 83.3 82.1401C82 82.045 81.1 82.9957 81.1 84.3266Z" fill="#A76F29"/>
<path d="M41.6 81.4746C42.6 81.4746 43.6 81.3796 44.7 81.4746C46.3 81.6648 47.2 82.7105 47.3 84.2316C47.3 85.7528 46.3 86.8936 44.8 87.1788C43.7 87.3689 42.7 87.2739 41.7 87.3689C41.8 86.8936 41.9 86.5133 41.9 86.133C41.9 84.8021 41.9 83.5662 41.9 82.2352C41.8 82.045 41.7 81.7598 41.6 81.4746ZM42.8 82.1401C42.8 83.6612 42.8 85.0873 42.8 86.4183C42.8 86.5133 43 86.7035 43.1 86.7035C44.9 86.8936 46.6 85.9429 46 83.6612C45.8 82.9007 45.3 82.4253 44.5 82.2352C44 82.1401 43.5 82.1401 42.8 82.1401Z" fill="#A76F29"/>
<path d="M73.5 87.3689C73.6 86.9886 73.7 86.6083 73.7 86.3231C73.7 85.0872 73.7 83.7562 73.7 82.5203C73.7 82.2351 73.6 81.8548 73.5 81.5696C74.5 81.5696 75.5 81.4745 76.6 81.5696C78.2 81.7597 79.1 82.8055 79.1 84.3266C79.1 85.8477 78.2 86.9886 76.6 87.2738C76.4 87.2738 76.3 87.3689 76.1 87.3689C75.3 87.3689 74.4 87.3689 73.5 87.3689ZM74.8 82.14C74.8 83.471 74.8 84.7069 74.8 85.8477C74.8 86.7984 74.8 86.7984 75.8 86.7034C77.2 86.6083 78.1 85.7527 78.2 84.5168C78.3 83.1858 77.5 82.3302 76.2 82.14C75.7 82.0449 75.2 82.14 74.8 82.14Z" fill="#A76F29"/>
<path d="M88.4 82.1401C88.4 83.6612 88.4 85.0873 88.4 86.5133C88.4 86.7985 88.6 87.0837 88.7 87.3689C88.2 87.3689 87.7 87.3689 87.2 87.3689C87.3 86.9887 87.4 86.6084 87.4 86.133C87.4 84.8971 87.4 83.6612 87.4 82.4253C87.4 82.1401 87.3 81.7598 87.2 81.4746C88 81.4746 88.9 81.3796 89.8 81.4746C90.6 81.5697 91.1 82.045 91.2 82.6155C91.3 83.281 91 83.8514 90.3 84.2316C90.1 84.3267 90 84.4218 89.7 84.5169C90.6 85.4676 91.3 86.6084 92.5 87.2739C91.7 87.5591 91 87.369 90.5 86.7985C89.8 85.9429 89.2 85.1823 88.5 84.3267C88.9 84.2316 89.2 84.1366 89.4 84.0415C90 83.7563 90.3 83.281 90.1 82.8056C90 82.3303 89.5 82.045 88.8 82.045C88.8 82.045 88.6 82.045 88.4 82.1401Z" fill="#A76F29"/>
<path d="M69.3 99.823C68.8 99.823 68.2 99.823 67.7 99.823C67.7 99.5378 67.8 99.3476 67.7 99.0624C67.5 98.5871 67.4 97.9216 67.1 97.6364C66.7 97.3512 66.1 97.5413 65.5 97.5413C65.4 97.5413 65.2 97.5413 65.1 97.5413C64.8 97.5413 64.7 97.6364 64.6 97.8265C64.5 98.2068 64.3 98.5871 64.2 98.9673C64.1 99.1575 64.2 99.4427 64.2 99.7279C63.8 99.7279 63.3 99.7279 62.9 99.7279C63.2 99.2526 63.4 98.7772 63.7 98.3019C64.2 97.066 64.7 95.8301 65.3 94.5942C65.4 94.3089 65.5 94.0237 65.2 93.7385C65.7 93.7385 66.1 93.7385 66.5 93.7385C66.6 93.7385 66.8 93.9287 66.8 94.0237C67.4 95.4498 68 96.8758 68.7 98.3019C68.8 98.9674 69 99.4427 69.3 99.823ZM65 96.8758C65.6 96.8758 66.2 96.8758 66.8 96.8758C66.5 96.1153 66.2 95.4498 65.9 94.6892C65.6 95.5448 65.3 96.2103 65 96.8758Z" fill="#A76F29"/>
<path d="M47.9 87.369C47.5 87.369 47 87.369 46.5 87.369C46.7 86.9887 47 86.5134 47.2 86.1331C47.8 84.8972 48.3 83.6613 48.8 82.3303C48.9 82.0451 48.9 81.7599 48.9 81.4747C48.8 81.4747 48.8 81.4747 48.8 81.4747C49.2 81.4747 49.8 81.3796 50.1 81.5698C50.4 81.7599 50.5 82.2353 50.7 82.6155C51.2 83.8514 51.7 85.0873 52.3 86.3233C52.5 86.7035 52.7 86.9887 53 87.369C52.5 87.369 51.9 87.369 51.3 87.369C51.6 87.1789 51.5 86.8937 51.4 86.6085C51.2 86.1331 51.1 85.5627 50.8 85.2775C50.5 85.0873 49.8 85.1824 49.3 85.1824C48.5 85.1824 48.5 85.1824 48.2 85.8479C48.1 86.038 48 86.3233 48 86.5134C47.8 86.7986 47.9 87.0838 47.9 87.369ZM50.5 84.4219C50.2 83.6613 49.9 82.9958 49.6 82.2353C49.3 82.9958 49 83.6613 48.7 84.4219C49.3 84.4219 49.8 84.4219 50.5 84.4219Z" fill="#A76F29"/>
<path d="M98.4 87.4641C98.7 87.274 98.9 87.0838 99.2 86.9888C100.8 86.5134 101.8 85.1825 101.7 83.7564C101.7 83.0909 101.4 82.5205 100.7 82.1402C100.2 81.855 99.5 81.9501 99.1 82.3304C98.7 82.7106 98.6 83.4712 98.9 84.0416C99.2 84.517 99.7 84.8022 100.3 84.7071C100.5 84.7071 100.8 84.612 101 84.517C100.7 85.0874 100.2 85.3726 99.5 85.2775C98.7 85.1825 98.1 84.8022 97.8 84.1367C97.2 82.8057 98.3 81.2846 99.9 81.1895C101.8 81.0945 103 82.6156 102.5 84.4219C102 86.1332 100.7 86.8937 99 87.3691C98.8 87.4641 98.5 87.4641 98.3 87.4641C98.5 87.5592 98.4 87.4641 98.4 87.4641Z" fill="#A76F29"/>
<path d="M107.4 86.6084C108 86.7034 108.6 86.7985 109.2 86.7985C109.8 86.7985 110.3 86.6084 110.6 86.133C111 85.4675 110.7 84.707 109.9 84.4218C109.4 84.2316 108.8 84.2316 108.3 84.4218C108.1 84.4218 107.9 84.5168 107.7 84.6119C107.8 83.5661 107.8 82.5204 107.9 81.4746C109.1 81.4746 110.2 81.4746 111.3 81.4746C111.3 81.8549 111.3 82.1401 111.3 82.5204C110.6 82.045 109.8 82.1401 109 82.1401C108.9 82.1401 108.8 82.3302 108.7 82.4253C108.7 82.8056 108.7 83.1859 108.7 83.5661C108.9 83.5661 109 83.5661 109.2 83.4711C110.4 83.2809 111.5 83.8513 111.8 84.802C112.2 85.9429 111.5 87.0837 110.1 87.3689C109.5 87.464 108.8 87.3689 108.1 87.3689C108 87.3689 107.9 87.2739 107.8 87.1788C107.6 87.0837 107.5 86.7985 107.4 86.6084Z" fill="#A76F29"/>
<path d="M76.7 98.7772C77.2 98.9674 77.7 99.1575 78.3 99.3476C78.8 99.4427 79.3 99.3476 79.7 99.1575C80.2 98.8723 80.3 98.3019 79.8 97.9216C79.5 97.6364 79.1 97.5413 78.8 97.3512C78.4 97.161 77.9 96.9709 77.5 96.6857C77 96.4005 76.7 95.9251 76.8 95.2596C76.9 94.5941 77.3 94.3089 77.9 94.0237C78.7 93.7385 79.5 93.7385 80.3 93.9287C80.6 94.0237 80.7 94.1188 80.6 94.3089C80.6 94.4991 80.6 94.6892 80.6 94.8794C80.1 94.7843 79.5 94.5941 79 94.4991C78.8 94.4991 78.6 94.4991 78.5 94.5941C77.8 94.7843 77.7 95.4498 78.3 95.9251C78.7 96.2103 79.1 96.4005 79.5 96.5906C79.8 96.7807 80.2 96.8758 80.5 97.161C81.3 97.7314 81.4 98.5871 80.7 99.3476C79.9 100.203 78.9 100.203 77.8 100.108C76.8 99.823 76.7 99.6328 76.7 98.7772Z" fill="#A76F29"/>
<path d="M60.6 97.066C60.7 97.066 60.8 96.971 60.9 96.971C61.1 96.8759 61.3 96.8759 61.5 96.6857C62 96.4005 62.3 95.8301 62.1 95.2597C62 94.7843 61.6 94.4991 60.9 94.4991C60.2 94.4991 60.2 94.4991 60.2 95.1646C60.2 96.4005 60.2 97.5414 60.2 98.7773C60.2 99.1576 60.4 99.4428 60.5 99.823C60.1 99.823 59.5 99.823 58.8 99.823C59.2 99.4428 59.2 98.9674 59.2 98.4921C59.2 97.3512 59.2 96.1153 59.2 94.9745C59.2 94.5942 59.1 94.309 59 93.9287C59.9 93.9287 60.9 93.8337 61.9 93.9287C62.8 94.0238 63.3 94.5942 63.3 95.3548C63.4 96.0203 62.9 96.7808 62.1 96.971C61.7 97.1611 61.2 97.2562 60.6 97.066Z" fill="#A76F29"/>
<path d="M37.1 87.369C37.2 86.9887 37.3 86.7035 37.3 86.3233C37.3 84.9923 37.3 83.7564 37.3 82.4254C37.3 82.0451 37.2 81.7599 37.1 81.3796C38.1 81.3796 39.3 81.3796 40.4 81.3796C40.4 81.6648 40.4 82.0451 40.4 82.3303C39.7 81.855 39 81.9501 38.3 82.0451C38.3 82.6155 38.3 83.0909 38.3 83.6613C38.8 83.6613 39.3 83.6613 39.8 83.6613C39.8 83.9465 39.8 84.2317 39.8 84.4219C39.3 84.4219 38.8 84.3268 38.3 84.3268C38.3 85.0874 38.3 85.7528 38.3 86.4183C39.3 86.5134 40.3 86.7035 41.3 85.943C41.1 86.4183 41 86.7035 40.9 87.0838C40.9 87.1789 40.7 87.274 40.6 87.274C39.5 87.369 38.2 87.369 37.1 87.369Z" fill="#A76F29"/>
<path d="M65 81.4746C66 81.4746 67.1 81.4746 68.3 81.4746C68.3 81.7598 68.3 82.1401 68.3 82.4253C67.8 82.045 67.2 82.045 66.6 82.1401C66.3 82.1401 66.2 82.2352 66.2 82.5204C66.2 82.9007 66.2 83.376 66.2 83.7563C66.7 83.7563 67.2 83.7563 67.7 83.7563C67.7 84.0415 67.7 84.3267 67.7 84.5168C67.2 84.5168 66.7 84.4218 66.2 84.4218C66.2 85.1823 66.2 85.8478 66.2 86.5133C67.2 86.6084 68.2 86.7985 69.2 86.0379C69 86.5133 68.9 86.7985 68.8 87.1788C68.8 87.2738 68.6 87.2738 68.5 87.2738C67.3 87.2738 66.1 87.2738 65 87.2738C65.1 86.8936 65.2 86.5133 65.2 86.133C65.2 84.8971 65.2 83.6612 65.2 82.4253C65.2 82.2352 65.1 81.8549 65 81.4746Z" fill="#A76F29"/>
<path d="M104.1 86.6084C105.7 86.7985 106 86.7985 107.3 86.3232C107.1 86.7034 107 86.9886 106.8 87.2738C106.8 87.3689 106.6 87.464 106.5 87.464C105.1 87.464 103.8 87.464 102.3 87.464C102.4 87.2738 102.5 87.1788 102.6 87.0837C103.4 86.0379 104.2 84.8971 105 83.8513C105.3 83.4711 105.6 82.9957 105.2 82.5204C104.9 82.1401 104.4 82.045 103.7 82.2352C103.4 82.3302 103 82.5204 102.7 82.6154C102.8 81.8549 103.1 81.4746 103.9 81.4746C104.4 81.4746 105 81.4746 105.4 81.6648C106.3 81.95 106.6 82.7105 106.2 83.5661C105.8 84.3267 105.2 84.9922 104.7 85.7527C104.6 85.9429 104.4 86.2281 104.1 86.6084Z" fill="#A76F29"/>
<path d="M117.4 40.2145C117.4 41.8307 116.1 43.0666 114.3 42.9715C112.6 42.9715 111.4 41.7356 111.4 40.1194C111.4 38.5032 112.8 37.2673 114.5 37.2673C116.1 37.3624 117.4 38.6934 117.4 40.2145ZM114.4 42.4962C115.8 42.4962 116.8 41.4504 116.8 40.1194C116.8 38.8835 115.7 37.8377 114.4 37.8377C113 37.8377 112 38.8835 112 40.1194C112 41.4504 113.1 42.4962 114.4 42.4962Z" fill="#A76F29"/>
<path d="M57.2 86.6084C58.7 86.7985 59 86.7985 60.2 86.2281C60 86.6084 59.9 86.9886 59.8 87.2739C59.8 87.3689 59.6 87.3689 59.5 87.3689C58.3 87.3689 57.2 87.3689 55.9 87.3689C56.3 86.8936 56.2 86.4182 56.2 85.9429C56.2 84.802 56.2 83.6612 56.2 82.5204C56.2 82.1401 56.1 81.8549 56 81.4746C56.4 81.4746 57 81.4746 57.4 81.4746C57.3 81.8549 57.2 82.1401 57.2 82.5204C57.2 83.8514 57.2 85.1823 57.2 86.6084Z" fill="#A76F29"/>
<path d="M61.8 86.6084C62.9 86.7034 63.9 86.8936 64.8 86.2281C64.7 86.5133 64.5 86.8936 64.4 87.1788C64.4 87.2738 64.2 87.3689 64.1 87.3689C62.9 87.3689 61.7 87.3689 60.5 87.3689C60.9 86.8936 60.9 86.4182 60.8 85.9429C60.8 84.802 60.8 83.6612 60.8 82.5204C60.8 82.1401 60.7 81.8549 60.6 81.4746C61 81.4746 61.6 81.4746 62 81.4746C61.9 81.8549 61.8 82.2352 61.8 82.7105C61.8 83.9464 61.8 85.2774 61.8 86.6084Z" fill="#A76F29"/>
<path d="M96.3 87.369C96.4 87.0838 96.6 86.7035 96.6 86.4183C96.6 85.1824 96.6 83.9465 96.6 82.6155C96.3 82.6155 96 82.6155 95.7 82.6155C96.3 82.1401 96.9 81.6648 97.5 81.1895C97.5 81.1895 97.5 81.2845 97.5 81.4747C97.5 83.0908 97.5 84.707 97.5 86.3232C97.5 86.7035 97.7 87.0838 97.8 87.464C97.4 87.369 96.8 87.369 96.3 87.369Z" fill="#A76F29"/>
<path d="M53.6 87.3691C53.7 86.9888 53.8 86.7036 53.8 86.3233C53.8 85.0874 53.8 83.7564 53.8 82.5205C53.8 82.2353 53.7 81.855 53.6 81.5698C54 81.5698 54.6 81.5698 55 81.5698C54.9 81.9501 54.8 82.3304 54.8 82.7107C54.8 83.9466 54.8 85.1825 54.8 86.4184C54.8 86.7036 54.9 87.0839 55 87.3691C54.6 87.3691 54.1 87.3691 53.6 87.3691Z" fill="#A76F29"/>
<path d="M79.3 82.9958C79.5 82.8056 79.5 82.7106 79.6 82.6155C79.7 82.5204 79.7 82.4254 79.8 82.2352C79.7 82.2352 79.7 82.1401 79.6 82.1401C79.3 82.0451 79.1 81.8549 79.2 81.5697C79.3 81.3796 79.5 81.1895 79.7 81.1895C79.9 81.1895 80.2 81.3796 80.3 81.5697C80.5 81.95 80 82.9007 79.6 83.0908C79.6 83.0908 79.4 82.9958 79.3 82.9958Z" fill="#A76F29"/>
<path d="M70.1 14.0704C70.5 13.5951 70.5 13.1197 70.1 12.5493C70.7 12.5493 71.2 12.5493 71.7 12.5493C71.8 12.5493 71.9 12.8345 72.1 12.9296C71.7 13.1197 71.3 12.4542 71 13.0247C71.2 12.9296 71.3 12.9296 71.5 12.9296C71.5 13.1197 71.5 13.3099 71.5 13.5951C71.4 13.5 71.2 13.5 71.1 13.4049V13.5C71.1 13.5951 71.2 13.8803 71.2 13.8803C71.4 13.8803 71.6 13.8803 71.7 13.7852C71.8 13.6902 71.9 13.5 72 13.4049C72.1 13.9754 72 14.1655 71.5 14.1655C71.1 14.1655 70.6 14.1655 70.2 14.1655C70.1 14.1655 70.1 14.0704 70.1 14.0704Z" fill="#A76F29"/>
<path d="M67.9 14.0704C67.6 14.0704 67.3 14.0704 66.9 14.0704C66.9 13.9753 66.9 13.8802 67 13.7852C66.5 13.595 66.4 13.595 66.5 14.0704C66.3 14.0704 66.1 14.0704 65.8 14.0704C66 13.595 66.5 13.2148 66.2 12.5493C66.8 12.3591 67 12.3591 67.3 12.9295C67.5 13.4049 67.7 13.6901 67.9 14.0704Z" fill="#A76F29"/>
<path d="M74.4 13.3099C74.3 14.1655 74.2 14.2606 73.5 14.1655C73.2 14.1655 72.9 14.1655 72.5 14.0704C72.5 14.0704 72.5 14.0704 72.5 13.9754C72.9 13.5951 73 13.1197 72.5 12.5493C72.9 12.5493 73.3 12.5493 73.6 12.5493C73.5 12.8345 73.4 13.1197 73.4 13.5C73.4 13.5951 73.5 13.7852 73.6 13.8803C73.7 13.8803 73.9 13.8803 74 13.7852C74.1 13.5951 74.2 13.5 74.4 13.3099Z" fill="#A76F29"/>
<path d="M69.2 12.5493C69.4 12.5493 69.6 12.5493 69.8 12.5493C69.6 13.0247 69.3 13.4049 69.1 13.8803C69 13.9754 68.9 14.0704 68.8 14.0704C68.7 14.0704 68.6 13.9754 68.5 13.8803C68.2 13.5 68 13.0247 67.7 12.5493C67.9 12.5493 68.2 12.5493 68.5 12.5493C68.6 12.8345 68.6 13.1197 68.7 13.3099C68.8 13.3099 68.8 13.3099 68.9 13.3099C69.1 13.1197 69.1 12.8345 69.2 12.5493Z" fill="#A76F29"/>
<path d="M114 41.7355C113.7 41.7355 113.4 41.7355 113.2 41.7355C113.2 40.6898 113.2 39.644 113.2 38.5032C113.9 38.5032 114.5 38.5032 115.1 38.5982C115.5 38.5982 115.8 38.8835 115.8 39.3588C115.9 39.8341 115.7 40.0243 115.3 40.2144C115.5 40.4046 115.7 40.5947 115.7 40.8799C115.8 41.1651 115.7 41.3553 115.8 41.7355C115.6 41.7355 115.5 41.7355 115.3 41.7355C115 41.7355 114.9 41.6405 114.9 41.3553C114.9 40.6898 114.7 40.5947 114 40.6898C114 41.0701 114 41.3553 114 41.7355ZM114 40.2144C114.4 40.1194 114.6 40.0243 114.9 39.8341C115 39.8341 115 39.4539 114.9 39.3588C114.7 39.2637 114.4 39.1687 114.1 39.0736C114 39.4539 114 39.7391 114 40.2144Z" fill="#A76F29"/>
</svg>
