<svg width="38" height="37" viewBox="0 0 38 37" fill="none" xmlns="http://www.w3.org/2000/svg">
<path d="M32.4508 21.2864C33.6839 22.461 34.9975 23.5703 36.0966 24.8624C36.5926 25.4366 37.0483 26.037 37.4102 26.7026C37.9196 27.6553 37.4638 28.6994 36.5792 28.7516H31.1506C29.7432 28.8691 28.6307 28.3209 27.6924 27.3813C26.9418 26.6373 26.2448 25.8412 25.521 25.0712C25.2261 24.758 24.9178 24.4578 24.5425 24.2229C23.8053 23.753 23.1619 23.8966 22.733 24.6536C22.3041 25.4236 22.1968 26.2719 22.1566 27.1202C22.103 28.3601 21.7143 28.6994 20.4275 28.7516C17.6797 28.8821 15.0794 28.4775 12.6533 27.1202C10.522 25.9326 8.85996 24.249 7.42575 22.3566C4.62434 18.65 2.46631 14.5911 0.536152 10.4017C0.107228 9.46203 0.415517 8.95303 1.48783 8.93998C3.25714 8.90083 5.02645 8.91388 6.80917 8.93998C7.53298 8.95303 8.00211 9.35762 8.2836 10.0102C9.24867 12.3072 10.4148 14.4867 11.8892 16.5227C12.278 17.0578 12.6801 17.6059 13.2564 17.9844C13.8864 18.4021 14.369 18.2716 14.6638 17.5798C14.8515 17.1492 14.9319 16.6793 14.9721 16.2095C15.1062 14.6172 15.133 13.025 14.8783 11.4327C14.7309 10.4409 14.1545 9.80136 13.1358 9.60559C12.613 9.51423 12.6935 9.31846 12.9481 9.03134C13.3905 8.5354 13.7926 8.22217 14.6102 8.22217H20.7492C21.7143 8.40488 21.9287 8.83557 22.0628 9.77525V16.4183C22.0494 16.7837 22.2504 17.867 22.934 18.1149C23.4702 18.2846 23.8321 17.867 24.1538 17.5276C25.6282 16.0137 26.6737 14.2126 27.612 12.3594C28.0275 11.5372 28.3894 10.6888 28.7379 9.84051C28.9926 9.21406 29.3947 8.90083 30.1319 8.91388H36.043C36.2173 8.91388 36.3915 8.91388 36.5658 8.93998C37.5577 9.10965 37.8392 9.52728 37.5309 10.467C37.0483 11.9548 36.0966 13.1947 35.1852 14.4345C34.1933 15.7657 33.1478 17.0447 32.1693 18.376C31.2578 19.6158 31.3383 20.2292 32.4508 21.2864Z" fill="#7A7A7A"/>
</svg>
